<svg width="33" height="32" viewBox="0 0 33 32" fill="none" xmlns="http://www.w3.org/2000/svg">
<path d="M6.5013 29.3337V22.667M6.5013 9.33366V2.66699M3.16797 6.00033H9.83464M3.16797 26.0003H9.83464M17.8346 4.00033L15.5224 10.0121C15.1464 10.9898 14.9584 11.4786 14.666 11.8898C14.4069 12.2542 14.0885 12.5726 13.7241 12.8317C13.3129 13.1241 12.8241 13.3121 11.8464 13.6881L5.83464 16.0003L11.8465 18.3126C12.8241 18.6886 13.3129 18.8766 13.7241 19.169C14.0885 19.4281 14.4069 19.7465 14.666 20.1109C14.9584 20.522 15.1464 21.0109 15.5224 21.9885L17.8346 28.0003L20.1469 21.9885C20.5229 21.0109 20.7109 20.522 21.0033 20.1109C21.2624 19.7465 21.5808 19.4281 21.9452 19.169C22.3564 18.8766 22.8452 18.6886 23.8228 18.3126L29.8346 16.0003L23.8228 13.6881C22.8452 13.3121 22.3564 13.1241 21.9452 12.8317C21.5808 12.5726 21.2624 12.2542 21.0033 11.8898C20.7109 11.4786 20.5229 10.9898 20.1469 10.0121L17.8346 4.00033Z" stroke="#B5D334" stroke-width="2" stroke-linecap="round" stroke-linejoin="round"/>
</svg>
