<svg width="29" height="28" viewBox="0 0 29 28" fill="none" xmlns="http://www.w3.org/2000/svg">
<path d="M6.33203 16.6671C4.17211 17.6199 2.83203 18.9477 2.83203 20.4163C2.83203 23.3158 8.05538 25.6663 14.4987 25.6663C20.942 25.6663 26.1654 23.3158 26.1654 20.4163C26.1654 18.9477 24.8253 17.6199 22.6654 16.6671M21.4987 9.33301C21.4987 14.074 16.2487 16.333 14.4987 19.833C12.7487 16.333 7.4987 14.074 7.4987 9.33301C7.4987 5.46701 10.6327 2.33301 14.4987 2.33301C18.3647 2.33301 21.4987 5.46701 21.4987 9.33301ZM15.6654 9.33301C15.6654 9.97734 15.143 10.4997 14.4987 10.4997C13.8544 10.4997 13.332 9.97734 13.332 9.33301C13.332 8.68868 13.8544 8.16634 14.4987 8.16634C15.143 8.16634 15.6654 8.68868 15.6654 9.33301Z" stroke="#344054" stroke-width="2" stroke-linecap="round" stroke-linejoin="round"/>
</svg>
