<svg xmlns="http://www.w3.org/2000/svg" fill="currentColor" viewBox="0 0 124 50">
    <style type="text/css"><![CDATA[
      .svg-logo--dark {
        fill: #016155;
      }
      @media (max-width: 94px), (max-height: 38px) {
        .svg-logo--dark {
          fill: #016155;
        } 
      }
    ]]></style>
  <path fill="currentColor" class="svg-logo--dark" d="M25.696 2.369C23.414.921 20.428 0 16.66 0H0v50h17.71c3.12 0 5.724-.637 7.835-1.722-9.011-3.425-15.361-11.735-15.361-22.956 0-11.222 6.42-19.585 15.512-22.953Zm5.08 6.313a17.267 17.267 0 0 1 4.376-.556c5.352 0 9.085 2.78 11.581 6.35l6.85-3.854C49.729 5.13 44.428.707 35.153.707c-3.348 0-6.539.576-9.46 1.659 4.423.971 6.001 1.43 6.001 1.43s-.667 4.135-.922 4.886m.527 33.467c.78-1.782 1.18-3.73 1.18-5.716 0-6.447-4.123-10.636-9.521-11.46 4.872-1.049 8.545-6.008 8.545-12.23 0-1.33-.245-2.714-.727-4.061-7.125 1.863-12.03 8.273-12.03 16.636 0 8.364 5.147 15.136 12.556 16.831m15.126-13.376v9.53c-2.14 1.997-6.42 4.278-11.272 4.278-1.337 0-2.628-.15-3.854-.432a12.76 12.76 0 0 1-1.927 3.103 12.442 12.442 0 0 1-3.83 3.026C28.504 49.404 31.75 50 35.155 50c8.278 0 13.77-3.425 18.478-8.632V21.425h-17.18v7.348h9.975ZM92.703 35.468h1.22c.331 0 .6.094.804.281.204.188.305.436.305.737 0 .302-.097.55-.288.738-.192.187-.45.281-.764.281h-1.277v-2.04.003Zm0 6.132v-2.45h1.32c.553 0 1.046-.114 1.475-.345a2.547 2.547 0 0 0 1.005-.941c.241-.4.362-.858.362-1.374a2.55 2.55 0 0 0-.372-1.374 2.594 2.594 0 0 0-1.026-.938c-.435-.225-.935-.339-1.498-.339H90.92v7.764h1.786l-.003-.003Zm-4.709-.235a2.667 2.667 0 0 0 1.133-1.069c.262-.462.396-1.012.396-1.648v-4.812h-1.786v4.812c0 .294-.06.55-.178.764a1.22 1.22 0 0 1-.51.499c-.22.117-.479.178-.777.178-.298 0-.563-.06-.78-.178a1.252 1.252 0 0 1-.507-.5 1.57 1.57 0 0 1-.177-.763v-4.812h-1.786v4.812c0 .636.13 1.186.388 1.648.258.463.63.818 1.116 1.07.486.25 1.06.378 1.726.378.667 0 1.257-.128 1.746-.379M76.846 39.79a2.088 2.088 0 0 1-.798-.837 2.59 2.59 0 0 1-.288-1.237c0-.466.097-.868.288-1.226.191-.359.456-.64.788-.845a2.155 2.155 0 0 1 1.152-.305c.436 0 .821.101 1.153.305.332.205.597.486.788.845.19.358.288.77.288 1.236 0 .466-.094.868-.278 1.227a2.04 2.04 0 0 1-.778.837 2.189 2.189 0 0 1-1.153.299c-.435 0-.824-.101-1.166-.299m3.26 1.424a3.719 3.719 0 0 0 1.425-1.42c.345-.603.516-1.294.516-2.068s-.174-1.477-.523-2.08a3.777 3.777 0 0 0-1.437-1.421c-.61-.346-1.31-.516-2.101-.516-.791 0-1.492.17-2.101.516-.61.345-1.09.817-1.438 1.42-.349.603-.523 1.297-.523 2.081s.174 1.465.523 2.068a3.762 3.762 0 0 0 1.44 1.42c.614.345 1.321.516 2.119.516.797 0 1.491-.17 2.098-.516m-11.226-5.75h1.176c.332 0 .6.087.804.265a.854.854 0 0 1 .305.677.89.89 0 0 1-.137.483.96.96 0 0 1-.382.338 1.24 1.24 0 0 1-.553.12h-1.21v-1.886l-.003.003Zm4.47 6.132-2.45-4.07-1.34.988 1.752 3.082h2.041-.003Zm-4.47 0V38.99h1.23c.57 0 1.075-.11 1.514-.328a2.544 2.544 0 0 0 1.035-.915c.252-.392.38-.837.38-1.34 0-.503-.125-.948-.373-1.337a2.525 2.525 0 0 0-1.025-.908c-.436-.218-.935-.328-1.498-.328h-3.05v7.763h1.787Zm-3.76-2.885.998-.321v-1.053h-3.471v1.374h2.473Zm-.7 2.617c.525-.265.938-.66 1.243-1.183.301-.522.455-1.159.455-1.913l-1.695.288c0 .319-.077.597-.235.831a1.543 1.543 0 0 1-.633.553 2.017 2.017 0 0 1-.922.201c-.459 0-.86-.104-1.21-.311a2.068 2.068 0 0 1-.797-.848 2.668 2.668 0 0 1-.278-1.237c0-.465.097-.878.288-1.236.191-.358.456-.637.794-.838a2.214 2.214 0 0 1 1.16-.298c.22 0 .439.04.653.117.215.077.412.188.593.329.181.14.329.298.44.476l1.474-.888a3.467 3.467 0 0 0-1.813-1.458 3.971 3.971 0 0 0-1.347-.218c-.798 0-1.502.171-2.115.516-.61.345-1.089.818-1.437 1.421-.349.603-.523 1.297-.523 2.08 0 .785.174 1.478.523 2.082a3.777 3.777 0 0 0 1.437 1.42c.61.345 1.314.516 2.115.516.693 0 1.303-.134 1.83-.398M122.162 26.438l.998-.322v-1.052h-3.471v1.373h2.473Zm-.701 2.616a2.95 2.95 0 0 0 1.243-1.182c.302-.523.456-1.16.456-1.914l-1.695.289c0 .318-.078.596-.235.83a1.54 1.54 0 0 1-.633.553 2.018 2.018 0 0 1-.922.201c-.459 0-.861-.104-1.21-.311a2.068 2.068 0 0 1-.797-.848 2.67 2.67 0 0 1-.278-1.236c0-.466.097-.878.288-1.237.191-.358.456-.637.794-.838a2.214 2.214 0 0 1 1.16-.298c.221 0 .439.04.653.117.214.078.412.188.593.329.181.14.329.298.439.476l1.475-.888a3.474 3.474 0 0 0-1.813-1.458 3.97 3.97 0 0 0-1.347-.218c-.798 0-1.502.171-2.115.516a3.78 3.78 0 0 0-1.438 1.421c-.348.603-.522 1.297-.522 2.08 0 .785.174 1.479.522 2.082a3.78 3.78 0 0 0 1.438 1.42c.61.346 1.314.516 2.115.516.693 0 1.303-.133 1.829-.398m-10.948-5.867h1.177c.331 0 .599.087.804.264a.856.856 0 0 1 .305.677.886.886 0 0 1-.138.483.954.954 0 0 1-.382.338c-.164.08-.348.12-.553.12h-1.209v-1.886l-.004.004Zm4.471 6.132-2.45-4.072-1.34.989 1.752 3.083h2.041-.003Zm-4.471 0v-2.607h1.23c.57 0 1.073-.111 1.515-.329a2.541 2.541 0 0 0 1.035-.915c.252-.392.379-.837.379-1.34 0-.503-.124-.948-.372-1.337a2.528 2.528 0 0 0-1.025-.908c-.436-.218-.935-.328-1.498-.328h-3.05v7.764h1.786Zm-3.183 0V27.68h-3.328v-1.475h2.742v-1.585h-2.742v-1.42h3.271v-1.642h-5.057v7.764h5.114Zm-10.17-6.367h.854c.302 0 .546.074.727.218.181.144.272.348.272.616s-.084.46-.255.604c-.17.144-.395.217-.677.217h-.921V22.956Zm0 3.083h1.085c.325 0 .58.077.764.228.185.15.278.361.278.626a.792.792 0 0 1-.264.617c-.178.157-.42.238-.72.238H97.16v-1.71Zm1.34 3.284c.526 0 .982-.088 1.374-.262.392-.174.7-.429.921-.764.222-.335.332-.747.332-1.236 0-.436-.094-.805-.281-1.103a2.055 2.055 0 0 0-.815-.727 2.31 2.31 0 0 0 .594-.65c.144-.241.217-.496.217-.77 0-.51-.114-.932-.345-1.264a2.052 2.052 0 0 0-.955-.744c-.405-.164-.874-.244-1.407-.244h-2.718v7.764H98.5Zm-3.937 0-3.938-5.003-1.32 1.052 3.05 3.947h2.208v.004Zm-5.047-7.764H87.74v7.764h1.776v-7.764Zm4.936 0h-2.329l-3.438 3.736.087 2.386 5.68-6.122Zm-9.705 7.596c.473-.201.885-.48 1.23-.838.349-.358.61-.774.788-1.246l-1.676-.567c-.127.258-.275.49-.449.687a1.821 1.821 0 0 1-.616.466c-.238.11-.506.168-.811.168-.416 0-.781-.1-1.103-.305a2.096 2.096 0 0 1-.754-.845 2.708 2.708 0 0 1-.271-1.236c0-.466.087-.878.265-1.236.177-.359.425-.637.743-.838.319-.201.68-.298 1.086-.298.288 0 .553.05.794.154.242.104.456.251.644.442.187.191.338.419.449.677l1.675-.566a3.7 3.7 0 0 0-2.014-2.058 4.007 4.007 0 0 0-1.548-.295c-.77 0-1.448.171-2.034.516a3.742 3.742 0 0 0-1.387 1.421c-.335.603-.506 1.297-.506 2.08 0 .785.167 1.479.506 2.082a3.694 3.694 0 0 0 1.387 1.42c.587.346 1.267.516 2.034.516.57 0 1.09-.1 1.565-.298m-6.655-2.885h-5.114v1.575h5.114v-1.575Zm-4.648 3.05 2.905-7.764H74.57l-3.016 7.764h1.887Zm6.055 0-3.016-7.764h-1.776l2.906 7.764h1.886Zm-8.672 0V27.68H67.52v-6.122h-1.786v7.764h5.09Zm-10.15-6.367h.854c.302 0 .546.074.727.218.181.144.272.348.272.616s-.084.46-.255.604c-.17.144-.395.217-.677.217h-.921V22.956Zm0 3.083h1.085c.325 0 .58.077.764.228.185.15.279.361.279.626a.792.792 0 0 1-.265.617c-.178.157-.42.238-.72.238h-1.143v-1.71Zm1.34 3.284c.526 0 .982-.088 1.374-.262.392-.174.7-.429.922-.764.22-.335.331-.747.331-1.236 0-.436-.094-.805-.281-1.103a2.056 2.056 0 0 0-.815-.727c.252-.19.45-.409.594-.65.144-.241.217-.496.217-.77 0-.51-.113-.932-.345-1.264a2.052 2.052 0 0 0-.955-.744c-.405-.164-.874-.244-1.407-.244H58.93v7.764h3.083Z"/>
</svg>