<svg width="29" height="28" viewBox="0 0 29 28" fill="none" xmlns="http://www.w3.org/2000/svg">
<path d="M7.4987 23.4351H10.544C10.9411 23.4351 11.3357 23.4823 11.7206 23.5768L14.9384 24.3587C15.6366 24.5288 16.3639 24.5454 17.0694 24.4083L20.6272 23.7162C21.567 23.5331 22.4315 23.0831 23.1091 22.424L25.6262 19.9754C26.3451 19.2773 26.3451 18.1445 25.6262 17.4453C24.979 16.8157 23.9542 16.7448 23.222 17.2787L20.2884 19.419C19.8683 19.7261 19.3571 19.8915 18.8313 19.8915H15.9984L17.8016 19.8914C18.8179 19.8914 19.6412 19.0906 19.6412 18.1019V17.744C19.6412 16.9231 19.0669 16.2073 18.2485 16.0089L15.4654 15.3321C15.0125 15.2222 14.5486 15.1667 14.0824 15.1667C12.9568 15.1667 10.9192 16.0987 10.9192 16.0987L7.4987 17.5291M2.83203 17.0334L2.83203 23.8C2.83203 24.4534 2.83203 24.7801 2.95919 25.0297C3.07104 25.2492 3.24952 25.4277 3.46904 25.5395C3.71861 25.6667 4.0453 25.6667 4.6987 25.6667H5.63203C6.28543 25.6667 6.61212 25.6667 6.86169 25.5395C7.08121 25.4277 7.25969 25.2492 7.37154 25.0297C7.4987 24.7801 7.4987 24.4534 7.4987 23.8V17.0334C7.4987 16.38 7.4987 16.0533 7.37154 15.8037C7.25969 15.5842 7.08121 15.4057 6.86169 15.2939C6.61212 15.1667 6.28543 15.1667 5.63203 15.1667H4.6987C4.0453 15.1667 3.71861 15.1667 3.46904 15.2939C3.24952 15.4057 3.07104 15.5842 2.95919 15.8037C2.83203 16.0533 2.83203 16.38 2.83203 17.0334ZM20.5553 4.191C19.859 2.734 18.2537 1.96212 16.6925 2.70714C15.1314 3.45216 14.4663 5.21898 15.1199 6.77C15.5239 7.72858 16.6812 9.59004 17.5065 10.8722C17.8114 11.346 17.9638 11.5829 18.1865 11.7215C18.3775 11.8403 18.6166 11.9044 18.8415 11.897C19.1036 11.8883 19.3541 11.7594 19.855 11.5015C21.2108 10.8037 23.1439 9.77035 23.973 9.14218C25.3146 8.12578 25.6469 6.25755 24.6425 4.83732C23.6381 3.4171 21.8868 3.27735 20.5553 4.191Z" stroke="#344054" stroke-width="2" stroke-linecap="round" stroke-linejoin="round"/>
</svg>
