<svg width="32" height="32" viewBox="0 0 32 32" fill="none" xmlns="http://www.w3.org/2000/svg">
<path d="M2.66797 16.0003H29.3346M2.66797 16.0003C2.66797 23.3641 8.63751 29.3337 16.0013 29.3337M2.66797 16.0003C2.66797 8.63653 8.63751 2.66699 16.0013 2.66699M29.3346 16.0003C29.3346 23.3641 23.3651 29.3337 16.0013 29.3337M29.3346 16.0003C29.3346 8.63653 23.3651 2.66699 16.0013 2.66699M16.0013 2.66699C19.3363 6.31813 21.2316 11.0564 21.3346 16.0003C21.2316 20.9443 19.3363 25.6825 16.0013 29.3337M16.0013 2.66699C12.6663 6.31813 10.771 11.0564 10.668 16.0003C10.771 20.9443 12.6663 25.6825 16.0013 29.3337" stroke="#B5D334" stroke-width="2" stroke-linecap="round" stroke-linejoin="round"/>
</svg>
