<svg width="29" height="28" viewBox="0 0 29 28" fill="none" xmlns="http://www.w3.org/2000/svg">
<path d="M8.66667 9.91667H14.5M8.66667 14H18M11.7977 21H19.4C21.3602 21 22.3403 21 23.089 20.6185C23.7475 20.283 24.283 19.7475 24.6185 19.089C25 18.3403 25 17.3602 25 15.4V9.1C25 7.13982 25 6.15972 24.6185 5.41103C24.283 4.75247 23.7475 4.21703 23.089 3.88148C22.3403 3.5 21.3602 3.5 19.4 3.5H9.6C7.63982 3.5 6.65972 3.5 5.91103 3.88148C5.25247 4.21703 4.71703 4.75247 4.38148 5.41103C4 6.15972 4 7.13982 4 9.1V23.7248C4 24.3464 4 24.6572 4.12743 24.8169C4.23826 24.9557 4.40631 25.0365 4.58396 25.0363C4.78823 25.0361 5.03095 24.8419 5.51638 24.4536L8.29942 22.2271C8.86794 21.7723 9.1522 21.5449 9.46873 21.3832C9.74956 21.2397 10.0485 21.1349 10.3574 21.0715C10.7056 21 11.0696 21 11.7977 21Z" stroke="#344054" stroke-width="2" stroke-linecap="round" stroke-linejoin="round"/>
</svg>
